<svg width="100%" height="100%" viewBox="0 0 24 24" fill="none" xmlns="http://www.w3.org/2000/svg">
<g clip-path="url(#clip0_404_256)">
<path fill-rule="evenodd" clip-rule="evenodd" d="M7.53488 9.2181C7.53488 9.2181 7.97071 6.10236 8.16545 5.66652C9.27821 3.10716 9.51931 1.9573 13.3213 2.03149C14.6937 2.03149 15.3892 2.43023 15.7508 3.03298C16.1125 3.63573 17.1696 8.4948 17.2067 8.59681C17.2356 8.67639 17.2937 8.74201 17.3692 8.78036C17.4447 8.81871 17.532 8.82693 17.6133 8.80335C17.6947 8.77977 17.764 8.72616 17.8073 8.65338C17.8506 8.58059 17.8646 8.49407 17.8465 8.41134C17.8465 7.48404 16.8265 2.64351 16.1217 1.92021C15.3571 1.24306 14.3604 0.887561 13.3398 0.927995C11.3368 0.872357 10.1221 1.15982 9.33385 1.74402C8.26745 2.54151 7.93362 3.79337 7.38651 5.31415C7.13323 6.62947 6.9844 7.96276 6.94141 9.30156C7.0805 9.76521 7.69252 9.55193 7.53488 9.2181Z" fill="currentColor"/>
<path fill-rule="evenodd" clip-rule="evenodd" d="M9.20501 7.57679C11.3863 7.90122 13.6071 7.8479 15.7703 7.41915C15.8389 7.40689 15.9009 7.37091 15.9456 7.31751C15.9903 7.26411 16.0148 7.19669 16.0148 7.12705C16.0148 7.05741 15.9903 6.98999 15.9456 6.93659C15.9009 6.88319 15.8389 6.84721 15.7703 6.83495C12.7751 6.69585 14.4165 6.48257 9.27919 6.9184C9.1978 6.91935 9.11955 6.94999 9.05917 7.00458C8.99879 7.05917 8.96043 7.13395 8.95132 7.21483C8.9422 7.29572 8.96296 7.37715 9.00968 7.44381C9.0564 7.51047 9.12586 7.55776 9.20501 7.57679Z" fill="currentColor"/>
<path fill-rule="evenodd" clip-rule="evenodd" d="M22.6878 16.7849C22.6878 14.8376 22.6044 9.56121 21.6585 7.88279C21.5264 7.69062 21.3468 7.53586 21.1372 7.43351C20.9276 7.33115 20.6951 7.28468 20.4623 7.29859C17.8566 7.13168 18.5521 8.04043 19.1734 8.03116C19.5721 8.03116 20.7961 7.82715 21.028 8.2259C21.8533 9.75595 21.8069 15.0787 21.7884 16.7849C21.7884 17.8884 22.3447 20.253 21.7327 21.1896C21.2969 21.8573 19.9894 21.6162 19.0621 21.7367C15.3529 22.2282 2.65805 21.9686 2.25931 21.5142C2.37059 15.2178 2.12949 16.2564 3.06607 10.6183C3.24226 9.4963 3.06607 7.96625 4.52194 7.62315C5.33796 7.42841 6.32091 7.8457 6.30236 7.28932C6.30238 7.25077 6.29465 7.21262 6.27963 7.17712C6.2646 7.14163 6.2426 7.10952 6.21491 7.0827C6.18723 7.05588 6.15444 7.0349 6.11848 7.02101C6.08253 7.00713 6.04415 7.00061 6.00562 7.00185C5.46571 6.95495 4.92275 6.95495 4.38284 7.00185C2.46332 7.40987 2.5746 9.36648 2.36132 10.47C1.34128 15.7927 1.49892 15.3847 1.30419 20.4941C1.30419 20.8651 1.11873 21.6347 1.43401 22.0798C1.94403 22.8124 2.93624 22.7475 3.61318 22.8031C7.84169 23.1462 15.4734 23.3317 19.2197 22.8031C20.3232 22.6362 21.8254 22.9237 22.5673 21.7553C23.4204 20.4014 22.7064 18.0553 22.6878 16.7849Z" fill="currentColor"/>
</g>
<defs>
<clipPath id="clip0_404_256">
<rect width="22.2553" height="22.2553" fill="white" transform="translate(0.988281 0.872314)"/>
</clipPath>
</defs>
</svg>
